<mxfile host="app.diagrams.net" agent="Mozilla/5.0 (Windows NT 10.0; Win64; x64) AppleWebKit/537.36 (KHTML, like Gecko) Chrome/135.0.0.0 Safari/537.36" version="26.2.9">
  <diagram id="C5RBs43oDa-KdzZeNtuy" name="Page-1">
    <mxGraphModel dx="1347" dy="581" grid="1" gridSize="10" guides="1" tooltips="1" connect="1" arrows="1" fold="1" page="1" pageScale="1" pageWidth="827" pageHeight="1169" math="0" shadow="0">
      <root>
        <mxCell id="WIyWlLk6GJQsqaUBKTNV-0" />
        <mxCell id="WIyWlLk6GJQsqaUBKTNV-1" parent="WIyWlLk6GJQsqaUBKTNV-0" />
        <mxCell id="1fOfvNt56Vgg0ssZX_3M-4" value="&lt;div&gt;&lt;b&gt;ComponentePedido&lt;/b&gt;&lt;/div&gt;«interface»" style="swimlane;fontStyle=0;childLayout=stackLayout;horizontal=1;startSize=40;fillColor=none;horizontalStack=0;resizeParent=1;resizeParentMax=0;resizeLast=0;collapsible=1;marginBottom=0;whiteSpace=wrap;html=1;" vertex="1" parent="WIyWlLk6GJQsqaUBKTNV-1">
          <mxGeometry x="130" y="440" width="220" height="100" as="geometry" />
        </mxCell>
        <mxCell id="1fOfvNt56Vgg0ssZX_3M-5" value="&lt;div&gt;+getPrecio(): double&lt;/div&gt;&lt;div&gt;+agregar(ComponentePedido): void&lt;/div&gt;&lt;div&gt;&lt;span style=&quot;background-color: transparent; color: light-dark(rgb(0, 0, 0), rgb(255, 255, 255));&quot;&gt;+remover(ComponentePedido): void&lt;/span&gt;&lt;/div&gt;" style="text;strokeColor=none;fillColor=none;align=left;verticalAlign=top;spacingLeft=4;spacingRight=4;overflow=hidden;rotatable=0;points=[[0,0.5],[1,0.5]];portConstraint=eastwest;whiteSpace=wrap;html=1;" vertex="1" parent="1fOfvNt56Vgg0ssZX_3M-4">
          <mxGeometry y="40" width="220" height="60" as="geometry" />
        </mxCell>
        <mxCell id="1fOfvNt56Vgg0ssZX_3M-9" value="Caja" style="swimlane;fontStyle=1;align=center;verticalAlign=top;childLayout=stackLayout;horizontal=1;startSize=26;horizontalStack=0;resizeParent=1;resizeParentMax=0;resizeLast=0;collapsible=1;marginBottom=0;whiteSpace=wrap;html=1;" vertex="1" parent="WIyWlLk6GJQsqaUBKTNV-1">
          <mxGeometry x="430" y="600" width="250" height="160" as="geometry" />
        </mxCell>
        <mxCell id="1fOfvNt56Vgg0ssZX_3M-10" value="&lt;div&gt;-nombre: String&lt;/div&gt;&lt;div&gt;-contenido: List&amp;lt;ComponentePedido&amp;gt;&lt;/div&gt;" style="text;strokeColor=none;fillColor=none;align=left;verticalAlign=top;spacingLeft=4;spacingRight=4;overflow=hidden;rotatable=0;points=[[0,0.5],[1,0.5]];portConstraint=eastwest;whiteSpace=wrap;html=1;" vertex="1" parent="1fOfvNt56Vgg0ssZX_3M-9">
          <mxGeometry y="26" width="250" height="44" as="geometry" />
        </mxCell>
        <mxCell id="1fOfvNt56Vgg0ssZX_3M-11" value="" style="line;strokeWidth=1;fillColor=none;align=left;verticalAlign=middle;spacingTop=-1;spacingLeft=3;spacingRight=3;rotatable=0;labelPosition=right;points=[];portConstraint=eastwest;strokeColor=inherit;" vertex="1" parent="1fOfvNt56Vgg0ssZX_3M-9">
          <mxGeometry y="70" width="250" height="8" as="geometry" />
        </mxCell>
        <mxCell id="1fOfvNt56Vgg0ssZX_3M-12" value="&lt;div&gt;+Caja(nombre: String)&lt;/div&gt;&lt;div&gt;+getPrecio(): double&lt;/div&gt;&lt;div&gt;+agregar(ComponentePedido): void&lt;/div&gt;&lt;div&gt;+remover(ComponentePedido): void&lt;/div&gt;&lt;div&gt;+toString(): String&lt;/div&gt;" style="text;strokeColor=none;fillColor=none;align=left;verticalAlign=top;spacingLeft=4;spacingRight=4;overflow=hidden;rotatable=0;points=[[0,0.5],[1,0.5]];portConstraint=eastwest;whiteSpace=wrap;html=1;" vertex="1" parent="1fOfvNt56Vgg0ssZX_3M-9">
          <mxGeometry y="78" width="250" height="82" as="geometry" />
        </mxCell>
        <mxCell id="1fOfvNt56Vgg0ssZX_3M-13" value="Producto" style="swimlane;fontStyle=1;align=center;verticalAlign=top;childLayout=stackLayout;horizontal=1;startSize=26;horizontalStack=0;resizeParent=1;resizeParentMax=0;resizeLast=0;collapsible=1;marginBottom=0;whiteSpace=wrap;html=1;" vertex="1" parent="WIyWlLk6GJQsqaUBKTNV-1">
          <mxGeometry x="100" y="600" width="280" height="160" as="geometry" />
        </mxCell>
        <mxCell id="1fOfvNt56Vgg0ssZX_3M-14" value="&lt;div&gt;-nombre: String&lt;/div&gt;&lt;div&gt;-precioUnitario: double&lt;/div&gt;" style="text;strokeColor=none;fillColor=none;align=left;verticalAlign=top;spacingLeft=4;spacingRight=4;overflow=hidden;rotatable=0;points=[[0,0.5],[1,0.5]];portConstraint=eastwest;whiteSpace=wrap;html=1;" vertex="1" parent="1fOfvNt56Vgg0ssZX_3M-13">
          <mxGeometry y="26" width="280" height="44" as="geometry" />
        </mxCell>
        <mxCell id="1fOfvNt56Vgg0ssZX_3M-15" value="" style="line;strokeWidth=1;fillColor=none;align=left;verticalAlign=middle;spacingTop=-1;spacingLeft=3;spacingRight=3;rotatable=0;labelPosition=right;points=[];portConstraint=eastwest;strokeColor=inherit;" vertex="1" parent="1fOfvNt56Vgg0ssZX_3M-13">
          <mxGeometry y="70" width="280" height="8" as="geometry" />
        </mxCell>
        <mxCell id="1fOfvNt56Vgg0ssZX_3M-16" value="&lt;div&gt;+Producto(nombre: String, precioUnitario: double)&lt;/div&gt;&lt;div&gt;+getPrecio(): double&lt;/div&gt;&lt;div&gt;+agregar(ComponentePedido): void&lt;/div&gt;&lt;div&gt;+remover(ComponentePedido): void&amp;nbsp;&lt;/div&gt;&lt;div&gt;+toString(): String&lt;/div&gt;" style="text;strokeColor=none;fillColor=none;align=left;verticalAlign=top;spacingLeft=4;spacingRight=4;overflow=hidden;rotatable=0;points=[[0,0.5],[1,0.5]];portConstraint=eastwest;whiteSpace=wrap;html=1;" vertex="1" parent="1fOfvNt56Vgg0ssZX_3M-13">
          <mxGeometry y="78" width="280" height="82" as="geometry" />
        </mxCell>
        <mxCell id="1fOfvNt56Vgg0ssZX_3M-21" value="&lt;b&gt;MainApp&lt;/b&gt;" style="swimlane;fontStyle=0;childLayout=stackLayout;horizontal=1;startSize=26;fillColor=none;horizontalStack=0;resizeParent=1;resizeParentMax=0;resizeLast=0;collapsible=1;marginBottom=0;whiteSpace=wrap;html=1;" vertex="1" parent="WIyWlLk6GJQsqaUBKTNV-1">
          <mxGeometry x="150" y="320" width="190" height="70" as="geometry" />
        </mxCell>
        <mxCell id="1fOfvNt56Vgg0ssZX_3M-22" value="&lt;div&gt;+main(args: String[]): void&lt;/div&gt;&lt;div&gt;-poblarCaja(caja: Caja): void&lt;/div&gt;" style="text;strokeColor=none;fillColor=none;align=left;verticalAlign=top;spacingLeft=4;spacingRight=4;overflow=hidden;rotatable=0;points=[[0,0.5],[1,0.5]];portConstraint=eastwest;whiteSpace=wrap;html=1;" vertex="1" parent="1fOfvNt56Vgg0ssZX_3M-21">
          <mxGeometry y="26" width="190" height="44" as="geometry" />
        </mxCell>
        <mxCell id="1fOfvNt56Vgg0ssZX_3M-25" value="&lt;b&gt;Client&lt;/b&gt;" style="html=1;whiteSpace=wrap;" vertex="1" parent="WIyWlLk6GJQsqaUBKTNV-1">
          <mxGeometry x="421" y="313" width="110" height="50" as="geometry" />
        </mxCell>
        <mxCell id="1fOfvNt56Vgg0ssZX_3M-26" value="" style="endArrow=block;dashed=1;endFill=0;endSize=12;html=1;rounded=0;entryX=0.498;entryY=1.011;entryDx=0;entryDy=0;entryPerimeter=0;" edge="1" parent="WIyWlLk6GJQsqaUBKTNV-1" source="1fOfvNt56Vgg0ssZX_3M-13" target="1fOfvNt56Vgg0ssZX_3M-5">
          <mxGeometry width="160" relative="1" as="geometry">
            <mxPoint x="330" y="570" as="sourcePoint" />
            <mxPoint x="490" y="570" as="targetPoint" />
          </mxGeometry>
        </mxCell>
        <mxCell id="1fOfvNt56Vgg0ssZX_3M-27" value="" style="endArrow=none;dashed=1;html=1;rounded=0;" edge="1" parent="WIyWlLk6GJQsqaUBKTNV-1">
          <mxGeometry width="50" height="50" relative="1" as="geometry">
            <mxPoint x="240" y="580" as="sourcePoint" />
            <mxPoint x="520" y="580" as="targetPoint" />
          </mxGeometry>
        </mxCell>
        <mxCell id="1fOfvNt56Vgg0ssZX_3M-28" value="" style="endArrow=none;dashed=1;html=1;rounded=0;exitX=0.356;exitY=-0.012;exitDx=0;exitDy=0;exitPerimeter=0;" edge="1" parent="WIyWlLk6GJQsqaUBKTNV-1" source="1fOfvNt56Vgg0ssZX_3M-9">
          <mxGeometry width="50" height="50" relative="1" as="geometry">
            <mxPoint x="390" y="590" as="sourcePoint" />
            <mxPoint x="520" y="580" as="targetPoint" />
          </mxGeometry>
        </mxCell>
        <mxCell id="1fOfvNt56Vgg0ssZX_3M-29" value="" style="endArrow=open;endSize=12;dashed=1;html=1;rounded=0;entryX=1;entryY=0.25;entryDx=0;entryDy=0;exitX=0;exitY=0.5;exitDx=0;exitDy=0;" edge="1" parent="WIyWlLk6GJQsqaUBKTNV-1" source="1fOfvNt56Vgg0ssZX_3M-25" target="1fOfvNt56Vgg0ssZX_3M-21">
          <mxGeometry width="160" relative="1" as="geometry">
            <mxPoint x="400" y="430" as="sourcePoint" />
            <mxPoint x="560" y="430" as="targetPoint" />
          </mxGeometry>
        </mxCell>
        <mxCell id="1fOfvNt56Vgg0ssZX_3M-30" value="" style="endArrow=open;endSize=12;dashed=1;html=1;rounded=0;entryX=0.5;entryY=0;entryDx=0;entryDy=0;exitX=0.475;exitY=1.061;exitDx=0;exitDy=0;exitPerimeter=0;" edge="1" parent="WIyWlLk6GJQsqaUBKTNV-1" source="1fOfvNt56Vgg0ssZX_3M-22" target="1fOfvNt56Vgg0ssZX_3M-4">
          <mxGeometry width="160" relative="1" as="geometry">
            <mxPoint x="431" y="348" as="sourcePoint" />
            <mxPoint x="350" y="348" as="targetPoint" />
          </mxGeometry>
        </mxCell>
        <mxCell id="1fOfvNt56Vgg0ssZX_3M-34" value="" style="endArrow=diamondThin;endFill=0;endSize=24;html=1;rounded=0;entryX=0.5;entryY=0;entryDx=0;entryDy=0;" edge="1" parent="WIyWlLk6GJQsqaUBKTNV-1">
          <mxGeometry width="160" relative="1" as="geometry">
            <mxPoint x="560" y="500" as="sourcePoint" />
            <mxPoint x="560" y="600" as="targetPoint" />
          </mxGeometry>
        </mxCell>
        <mxCell id="1fOfvNt56Vgg0ssZX_3M-35" value="" style="endArrow=open;endFill=1;endSize=12;html=1;rounded=0;entryX=1.023;entryY=0.344;entryDx=0;entryDy=0;entryPerimeter=0;" edge="1" parent="WIyWlLk6GJQsqaUBKTNV-1" target="1fOfvNt56Vgg0ssZX_3M-5">
          <mxGeometry width="160" relative="1" as="geometry">
            <mxPoint x="560" y="500" as="sourcePoint" />
            <mxPoint x="450" y="460" as="targetPoint" />
          </mxGeometry>
        </mxCell>
      </root>
    </mxGraphModel>
  </diagram>
</mxfile>
